<svg width="142" height="27" viewBox="0 0 142 27" fill="none" xmlns="http://www.w3.org/2000/svg">
<path d="M5.54336 4.44V11.93H15.0284V15.6925H5.54336V26H0.818359V0.694999H16.7784V4.44H5.54336Z" fill="#2D2D2D"/>
<path d="M44.5358 13.3475C44.5358 15.2025 44.2267 16.9233 43.6083 18.51C43.0017 20.085 42.1383 21.45 41.0183 22.605C39.8983 23.76 38.5508 24.6642 36.9758 25.3175C35.4008 25.9592 33.6508 26.28 31.7258 26.28C29.8125 26.28 28.0683 25.9592 26.4933 25.3175C24.9183 24.6642 23.565 23.76 22.4333 22.605C21.3133 21.45 20.4442 20.085 19.8258 18.51C19.2075 16.9233 18.8983 15.2025 18.8983 13.3475C18.8983 11.4925 19.2075 9.7775 19.8258 8.2025C20.4442 6.61583 21.3133 5.245 22.4333 4.09C23.565 2.935 24.9183 2.03667 26.4933 1.395C28.0683 0.741668 29.8125 0.415001 31.7258 0.415001C33.0092 0.415001 34.2167 0.566667 35.3483 0.869999C36.48 1.16167 37.5183 1.58167 38.4633 2.13C39.4083 2.66667 40.2542 3.32583 41.0008 4.1075C41.7592 4.8775 42.4008 5.74083 42.9258 6.6975C43.4508 7.65417 43.8475 8.6925 44.1158 9.8125C44.3958 10.9325 44.5358 12.1108 44.5358 13.3475ZM39.7233 13.3475C39.7233 11.9592 39.5367 10.7167 39.1633 9.62C38.79 8.51167 38.2592 7.5725 37.5708 6.8025C36.8825 6.0325 36.0425 5.44333 35.0508 5.035C34.0708 4.62667 32.9625 4.4225 31.7258 4.4225C30.4892 4.4225 29.375 4.62667 28.3833 5.035C27.4033 5.44333 26.5633 6.0325 25.8633 6.8025C25.175 7.5725 24.6442 8.51167 24.2708 9.62C23.8975 10.7167 23.7108 11.9592 23.7108 13.3475C23.7108 14.7358 23.8975 15.9842 24.2708 17.0925C24.6442 18.1892 25.175 19.1225 25.8633 19.8925C26.5633 20.6508 27.4033 21.2342 28.3833 21.6425C29.375 22.0508 30.4892 22.255 31.7258 22.255C32.9625 22.255 34.0708 22.0508 35.0508 21.6425C36.0425 21.2342 36.8825 20.6508 37.5708 19.8925C38.2592 19.1225 38.79 18.1892 39.1633 17.0925C39.5367 15.9842 39.7233 14.7358 39.7233 13.3475Z" fill="#2D2D2D"/>
<path d="M72.8024 13.3475C72.8024 15.2025 72.4933 16.9233 71.8749 18.51C71.2683 20.085 70.4049 21.45 69.2849 22.605C68.1649 23.76 66.8174 24.6642 65.2424 25.3175C63.6674 25.9592 61.9174 26.28 59.9924 26.28C58.0791 26.28 56.3349 25.9592 54.7599 25.3175C53.1849 24.6642 51.8316 23.76 50.6999 22.605C49.5799 21.45 48.7108 20.085 48.0924 18.51C47.4741 16.9233 47.1649 15.2025 47.1649 13.3475C47.1649 11.4925 47.4741 9.7775 48.0924 8.2025C48.7108 6.61583 49.5799 5.245 50.6999 4.09C51.8316 2.935 53.1849 2.03667 54.7599 1.395C56.3349 0.741668 58.0791 0.415001 59.9924 0.415001C61.2758 0.415001 62.4833 0.566667 63.6149 0.869999C64.7466 1.16167 65.7849 1.58167 66.7299 2.13C67.6749 2.66667 68.5208 3.32583 69.2674 4.1075C70.0258 4.8775 70.6674 5.74083 71.1924 6.6975C71.7174 7.65417 72.1141 8.6925 72.3824 9.8125C72.6624 10.9325 72.8024 12.1108 72.8024 13.3475ZM67.9899 13.3475C67.9899 11.9592 67.8033 10.7167 67.4299 9.62C67.0566 8.51167 66.5258 7.5725 65.8374 6.8025C65.1491 6.0325 64.3091 5.44333 63.3174 5.035C62.3374 4.62667 61.2291 4.4225 59.9924 4.4225C58.7558 4.4225 57.6416 4.62667 56.6499 5.035C55.6699 5.44333 54.8299 6.0325 54.1299 6.8025C53.4416 7.5725 52.9108 8.51167 52.5374 9.62C52.1641 10.7167 51.9774 11.9592 51.9774 13.3475C51.9774 14.7358 52.1641 15.9842 52.5374 17.0925C52.9108 18.1892 53.4416 19.1225 54.1299 19.8925C54.8299 20.6508 55.6699 21.2342 56.6499 21.6425C57.6416 22.0508 58.7558 22.255 59.9924 22.255C61.2291 22.255 62.3374 22.0508 63.3174 21.6425C64.3091 21.2342 65.1491 20.6508 65.8374 19.8925C66.5258 19.1225 67.0566 18.1892 67.4299 17.0925C67.8033 15.9842 67.9899 14.7358 67.9899 13.3475Z" fill="#2D2D2D"/>
<path d="M86.404 22.325C87.279 22.325 88.014 22.22 88.609 22.01C89.204 21.8 89.6765 21.52 90.0265 21.17C90.3882 20.82 90.6449 20.4117 90.7965 19.945C90.9599 19.4783 91.0415 18.9825 91.0415 18.4575C91.0415 17.9092 90.954 17.4192 90.779 16.9875C90.604 16.5442 90.3299 16.1708 89.9565 15.8675C89.5832 15.5525 89.099 15.3133 88.504 15.15C87.9207 14.9867 87.2149 14.905 86.3865 14.905H81.644V22.325H86.404ZM81.644 4.335V11.65H85.389C86.999 11.65 88.2124 11.3583 89.029 10.775C89.8574 10.1917 90.2715 9.26417 90.2715 7.9925C90.2715 6.67417 89.8982 5.735 89.1515 5.175C88.4049 4.615 87.2382 4.335 85.6515 4.335H81.644ZM85.6515 0.694999C87.3082 0.694999 88.7257 0.8525 89.904 1.1675C91.0824 1.4825 92.0449 1.93167 92.7915 2.515C93.5499 3.09833 94.104 3.80417 94.454 4.6325C94.804 5.46083 94.979 6.39417 94.979 7.4325C94.979 8.0275 94.8915 8.59917 94.7165 9.1475C94.5415 9.68417 94.2674 10.1917 93.894 10.67C93.5324 11.1367 93.0657 11.5625 92.494 11.9475C91.934 12.3325 91.2632 12.6592 90.4815 12.9275C93.9582 13.7092 95.6965 15.5875 95.6965 18.5625C95.6965 19.6358 95.4924 20.6275 95.084 21.5375C94.6757 22.4475 94.0807 23.235 93.299 23.9C92.5174 24.5533 91.5549 25.0667 90.4115 25.44C89.2682 25.8133 87.9615 26 86.4915 26H76.9365V0.694999H85.6515Z" fill="#2D2D2D"/>
<path d="M114.796 22.115V26H99.9736V0.694999H104.681V22.115H114.796Z" fill="#2D2D2D"/>
<path d="M141.401 13.3475C141.401 15.2025 141.092 16.9233 140.474 18.51C139.867 20.085 139.004 21.45 137.884 22.605C136.764 23.76 135.416 24.6642 133.841 25.3175C132.266 25.9592 130.516 26.28 128.591 26.28C126.678 26.28 124.934 25.9592 123.359 25.3175C121.784 24.6642 120.43 23.76 119.299 22.605C118.179 21.45 117.309 20.085 116.691 18.51C116.073 16.9233 115.764 15.2025 115.764 13.3475C115.764 11.4925 116.073 9.7775 116.691 8.2025C117.309 6.61583 118.179 5.245 119.299 4.09C120.43 2.935 121.784 2.03667 123.359 1.395C124.934 0.741668 126.678 0.415001 128.591 0.415001C129.874 0.415001 131.082 0.566667 132.214 0.869999C133.345 1.16167 134.384 1.58167 135.329 2.13C136.274 2.66667 137.119 3.32583 137.866 4.1075C138.624 4.8775 139.266 5.74083 139.791 6.6975C140.316 7.65417 140.713 8.6925 140.981 9.8125C141.261 10.9325 141.401 12.1108 141.401 13.3475ZM136.589 13.3475C136.589 11.9592 136.402 10.7167 136.029 9.62C135.655 8.51167 135.124 7.5725 134.436 6.8025C133.748 6.0325 132.908 5.44333 131.916 5.035C130.936 4.62667 129.828 4.4225 128.591 4.4225C127.354 4.4225 126.24 4.62667 125.249 5.035C124.269 5.44333 123.429 6.0325 122.729 6.8025C122.04 7.5725 121.509 8.51167 121.136 9.62C120.763 10.7167 120.576 11.9592 120.576 13.3475C120.576 14.7358 120.763 15.9842 121.136 17.0925C121.509 18.1892 122.04 19.1225 122.729 19.8925C123.429 20.6508 124.269 21.2342 125.249 21.6425C126.24 22.0508 127.354 22.255 128.591 22.255C129.828 22.255 130.936 22.0508 131.916 21.6425C132.908 21.2342 133.748 20.6508 134.436 19.8925C135.124 19.1225 135.655 18.1892 136.029 17.0925C136.402 15.9842 136.589 14.7358 136.589 13.3475Z" fill="#2D2D2D"/>
</svg>
