<svg width="151" height="42" viewBox="0 0 151 42" fill="none" xmlns="http://www.w3.org/2000/svg">
<path d="M7.5425 13.44V20.93H17.0275V24.6925H7.5425V35H2.8175V9.695H18.7775V13.44H7.5425ZM46.535 22.3475C46.535 24.2025 46.2258 25.9233 45.6075 27.51C45.0008 29.085 44.1375 30.45 43.0175 31.605C41.8975 32.76 40.55 33.6642 38.975 34.3175C37.4 34.9592 35.65 35.28 33.725 35.28C31.8116 35.28 30.0675 34.9592 28.4925 34.3175C26.9175 33.6642 25.5641 32.76 24.4325 31.605C23.3125 30.45 22.4433 29.085 21.825 27.51C21.2066 25.9233 20.8975 24.2025 20.8975 22.3475C20.8975 20.4925 21.2066 18.7775 21.825 17.2025C22.4433 15.6158 23.3125 14.245 24.4325 13.09C25.5641 11.935 26.9175 11.0367 28.4925 10.395C30.0675 9.74167 31.8116 9.415 33.725 9.415C35.0083 9.415 36.2158 9.56667 37.3475 9.87C38.4791 10.1617 39.5175 10.5817 40.4625 11.13C41.4075 11.6667 42.2533 12.3258 43 13.1075C43.7583 13.8775 44.4 14.7408 44.925 15.6975C45.45 16.6542 45.8466 17.6925 46.115 18.8125C46.395 19.9325 46.535 21.1108 46.535 22.3475ZM41.7225 22.3475C41.7225 20.9592 41.5358 19.7167 41.1625 18.62C40.7891 17.5117 40.2583 16.5725 39.57 15.8025C38.8816 15.0325 38.0416 14.4433 37.05 14.035C36.07 13.6267 34.9616 13.4225 33.725 13.4225C32.4883 13.4225 31.3741 13.6267 30.3825 14.035C29.4025 14.4433 28.5625 15.0325 27.8625 15.8025C27.1741 16.5725 26.6433 17.5117 26.27 18.62C25.8966 19.7167 25.71 20.9592 25.71 22.3475C25.71 23.7358 25.8966 24.9842 26.27 26.0925C26.6433 27.1892 27.1741 28.1225 27.8625 28.8925C28.5625 29.6508 29.4025 30.2342 30.3825 30.6425C31.3741 31.0508 32.4883 31.255 33.725 31.255C34.9616 31.255 36.07 31.0508 37.05 30.6425C38.0416 30.2342 38.8816 29.6508 39.57 28.8925C40.2583 28.1225 40.7891 27.1892 41.1625 26.0925C41.5358 24.9842 41.7225 23.7358 41.7225 22.3475ZM74.8016 22.3475C74.8016 24.2025 74.4924 25.9233 73.8741 27.51C73.2674 29.085 72.4041 30.45 71.2841 31.605C70.1641 32.76 68.8166 33.6642 67.2416 34.3175C65.6666 34.9592 63.9166 35.28 61.9916 35.28C60.0782 35.28 58.3341 34.9592 56.7591 34.3175C55.1841 33.6642 53.8307 32.76 52.6991 31.605C51.5791 30.45 50.7099 29.085 50.0916 27.51C49.4732 25.9233 49.1641 24.2025 49.1641 22.3475C49.1641 20.4925 49.4732 18.7775 50.0916 17.2025C50.7099 15.6158 51.5791 14.245 52.6991 13.09C53.8307 11.935 55.1841 11.0367 56.7591 10.395C58.3341 9.74167 60.0782 9.415 61.9916 9.415C63.2749 9.415 64.4824 9.56667 65.6141 9.87C66.7457 10.1617 67.7841 10.5817 68.7291 11.13C69.6741 11.6667 70.5199 12.3258 71.2666 13.1075C72.0249 13.8775 72.6666 14.7408 73.1916 15.6975C73.7166 16.6542 74.1132 17.6925 74.3816 18.8125C74.6616 19.9325 74.8016 21.1108 74.8016 22.3475ZM69.9891 22.3475C69.9891 20.9592 69.8024 19.7167 69.4291 18.62C69.0557 17.5117 68.5249 16.5725 67.8366 15.8025C67.1482 15.0325 66.3082 14.4433 65.3166 14.035C64.3366 13.6267 63.2282 13.4225 61.9916 13.4225C60.7549 13.4225 59.6407 13.6267 58.6491 14.035C57.6691 14.4433 56.8291 15.0325 56.1291 15.8025C55.4407 16.5725 54.9099 17.5117 54.5366 18.62C54.1632 19.7167 53.9766 20.9592 53.9766 22.3475C53.9766 23.7358 54.1632 24.9842 54.5366 26.0925C54.9099 27.1892 55.4407 28.1225 56.1291 28.8925C56.8291 29.6508 57.6691 30.2342 58.6491 30.6425C59.6407 31.0508 60.7549 31.255 61.9916 31.255C63.2282 31.255 64.3366 31.0508 65.3166 30.6425C66.3082 30.2342 67.1482 29.6508 67.8366 28.8925C68.5249 28.1225 69.0557 27.1892 69.4291 26.0925C69.8024 24.9842 69.9891 23.7358 69.9891 22.3475Z" fill="#FE4A51"/>
<path d="M88.4032 31.325C89.2782 31.325 90.0132 31.22 90.6082 31.01C91.2032 30.8 91.6757 30.52 92.0257 30.17C92.3873 29.82 92.644 29.4117 92.7957 28.945C92.959 28.4783 93.0407 27.9825 93.0407 27.4575C93.0407 26.9092 92.9532 26.4192 92.7782 25.9875C92.6032 25.5442 92.329 25.1708 91.9557 24.8675C91.5823 24.5525 91.0982 24.3133 90.5032 24.15C89.9198 23.9867 89.214 23.905 88.3857 23.905H83.6432V31.325H88.4032ZM83.6432 13.335V20.65H87.3882C88.9982 20.65 90.2115 20.3583 91.0282 19.775C91.8565 19.1917 92.2707 18.2642 92.2707 16.9925C92.2707 15.6742 91.8973 14.735 91.1507 14.175C90.404 13.615 89.2373 13.335 87.6507 13.335H83.6432ZM87.6507 9.695C89.3073 9.695 90.7248 9.8525 91.9032 10.1675C93.0815 10.4825 94.044 10.9317 94.7907 11.515C95.549 12.0983 96.1032 12.8042 96.4532 13.6325C96.8032 14.4608 96.9782 15.3942 96.9782 16.4325C96.9782 17.0275 96.8907 17.5992 96.7157 18.1475C96.5407 18.6842 96.2665 19.1917 95.8932 19.67C95.5315 20.1367 95.0648 20.5625 94.4932 20.9475C93.9332 21.3325 93.2623 21.6592 92.4807 21.9275C95.9573 22.7092 97.6957 24.5875 97.6957 27.5625C97.6957 28.6358 97.4915 29.6275 97.0832 30.5375C96.6748 31.4475 96.0798 32.235 95.2982 32.9C94.5165 33.5533 93.554 34.0667 92.4107 34.44C91.2673 34.8133 89.9607 35 88.4907 35H78.9357V9.695H87.6507ZM116.795 31.115V35H101.973V9.695H106.68V31.115H116.795ZM143.4 22.3475C143.4 24.2025 143.091 25.9233 142.473 27.51C141.866 29.085 141.003 30.45 139.883 31.605C138.763 32.76 137.415 33.6642 135.84 34.3175C134.265 34.9592 132.515 35.28 130.59 35.28C128.677 35.28 126.933 34.9592 125.358 34.3175C123.783 33.6642 122.429 32.76 121.298 31.605C120.178 30.45 119.309 29.085 118.69 27.51C118.072 25.9233 117.763 24.2025 117.763 22.3475C117.763 20.4925 118.072 18.7775 118.69 17.2025C119.309 15.6158 120.178 14.245 121.298 13.09C122.429 11.935 123.783 11.0367 125.358 10.395C126.933 9.74167 128.677 9.415 130.59 9.415C131.874 9.415 133.081 9.56667 134.213 9.87C135.344 10.1617 136.383 10.5817 137.328 11.13C138.273 11.6667 139.119 12.3258 139.865 13.1075C140.624 13.8775 141.265 14.7408 141.79 15.6975C142.315 16.6542 142.712 17.6925 142.98 18.8125C143.26 19.9325 143.4 21.1108 143.4 22.3475ZM138.588 22.3475C138.588 20.9592 138.401 19.7167 138.028 18.62C137.654 17.5117 137.124 16.5725 136.435 15.8025C135.747 15.0325 134.907 14.4433 133.915 14.035C132.935 13.6267 131.827 13.4225 130.59 13.4225C129.354 13.4225 128.239 13.6267 127.248 14.035C126.268 14.4433 125.428 15.0325 124.728 15.8025C124.039 16.5725 123.509 17.5117 123.135 18.62C122.762 19.7167 122.575 20.9592 122.575 22.3475C122.575 23.7358 122.762 24.9842 123.135 26.0925C123.509 27.1892 124.039 28.1225 124.728 28.8925C125.428 29.6508 126.268 30.2342 127.248 30.6425C128.239 31.0508 129.354 31.255 130.59 31.255C131.827 31.255 132.935 31.0508 133.915 30.6425C134.907 30.2342 135.747 29.6508 136.435 28.8925C137.124 28.1225 137.654 27.1892 138.028 26.0925C138.401 24.9842 138.588 23.7358 138.588 22.3475Z" fill="#2D2D2D"/>
</svg>
